{
  "source": "C:\\Users\\Peter\\Desktop\\stuff\\MIUN\\quantitative_research\\video_compression\\videos\\BVI-HD\\RockWave_1920x1080_30fps.mp4",
  "output": "C:\\Users\\Peter\\Desktop\\stuff\\MIUN\\quantitative_research\\video_compression\\compressed_videos\\BVI-HD\\h264\\2.5\\RockWave_1920x1080_30fps_h264.mp4",
  "codec": "h264",
  "ok": "Input #0, mov,mp4,m4a,3gp,3g2,mj2, from 'C:\\Users\\Peter\\Desktop\\stuff\\MIUN\\quantitative_research\\video_compression\\videos\\BVI-HD\\RockWave_1920x1080_30fps.mp4':\n  Metadata:\n    major_brand     : isom\n    minor_version   : 512\n    compatible_brands: isomiso2avc1mp41\n    encoder         : Lavf54.28.101\n  Duration: 00:00:05.00, start: 0.000000, bitrate: 303557 kb/s\n  Stream #0:0[0x1](und): Video: h264 (High 4:4:4 Predictive) (avc1 / 0x31637661), yuv420p(progressive), 1920x1080, 303553 kb/s, 30 fps, 30 tbr, 30 tbn (default)\n    Metadata:\n      handler_name    : VideoHandler\n      vendor_id       : [0][0][0][0]\n[out#0/mp4 @ 000001dc4a769a00] Codec AVOption b:a (set bitrate (in bits/s)) has not been used for any stream. The most likely reason is either wrong type (e.g. a video option with no video streams) or that it is a private option of some decoder which was not actually used for any stream.\nStream mapping:\n  Stream #0:0 -> #0:0 (h264 (native) -> h264 (libx264))\nPress [q] to stop, [?] for help\n[libx264 @ 000001dc4b5175c0] using cpu capabilities: MMX2 SSE2Fast SSSE3 SSE4.2 AVX FMA3 BMI2 AVX2\n[libx264 @ 000001dc4b5175c0] profile High, level 5.0, 4:2:0, 8-bit\n[libx264 @ 000001dc4b5175c0] 264 - core 165 r3222 b35605a - H.264/MPEG-4 AVC codec - Copyleft 2003-2025 - http://www.videolan.org/x264.html - options: cabac=1 ref=5 deblock=1:0:0 analyse=0x3:0x113 me=hex subme=8 psy=1 psy_rd=1.00:0.00 mixed_ref=1 me_range=16 chroma_me=1 trellis=2 8x8dct=1 cqm=0 deadzone=21,11 fast_pskip=1 chroma_qp_offset=-2 threads=18 lookahead_threads=3 sliced_threads=0 nr=0 decimate=1 interlaced=0 bluray_compat=0 constrained_intra=0 bframes=3 b_pyramid=2 b_adapt=1 b_bias=0 direct=3 weightb=1 open_gop=0 weightp=2 keyint=250 keyint_min=25 scenecut=40 intra_refresh=0 rc_lookahead=50 rc=cbr mbtree=1 bitrate=2500 ratetol=1.0 qcomp=0.60 qpmin=0 qpmax=69 qpstep=4 vbv_maxrate=2500 vbv_bufsize=2500 nal_hrd=none filler=0 ip_ratio=1.40 aq=1:1.00\nOutput #0, mp4, to 'C:\\Users\\Peter\\Desktop\\stuff\\MIUN\\quantitative_research\\video_compression\\compressed_videos\\BVI-HD\\h264\\2.5\\RockWave_1920x1080_30fps_h264.mp4':\n  Metadata:\n    major_brand     : isom\n    minor_version   : 512\n    compatible_brands: isomiso2avc1mp41\n    encoder         : Lavf62.3.100\n  Stream #0:0(und): Video: h264 (avc1 / 0x31637661), yuv420p(tv, progressive), 1920x1080, q=2-31, 2500 kb/s, 30 fps, 15360 tbn (default)\n    Metadata:\n      encoder         : Lavc62.11.100 libx264\n      handler_name    : VideoHandler\n      vendor_id       : [0][0][0][0]\n    Side data:\n      cpb: bitrate max/min/avg: 2500000/0/2500000 buffer size: 2500000 vbv_delay: N/A\nframe=    0 fps=0.0 q=0.0 size=       0KiB time=N/A bitrate=N/A speed=N/A elapsed=0:00:00.51    \nframe=    0 fps=0.0 q=0.0 size=       0KiB time=N/A bitrate=N/A speed=N/A elapsed=0:00:01.03    \nframe=    0 fps=0.0 q=0.0 size=       0KiB time=N/A bitrate=N/A speed=N/A elapsed=0:00:01.55    \nframe=    0 fps=0.0 q=0.0 size=       0KiB time=N/A bitrate=N/A speed=N/A elapsed=0:00:02.06    \nframe=   16 fps=6.2 q=45.0 size=       0KiB time=00:00:00.46 bitrate=   0.8kbits/s speed=0.181x elapsed=0:00:02.57    \nframe=   29 fps=9.4 q=45.0 size=       0KiB time=00:00:00.90 bitrate=   0.4kbits/s speed=0.291x elapsed=0:00:03.09    \nframe=   46 fps= 13 q=45.0 size=     256KiB time=00:00:01.43 bitrate=1463.4kbits/s speed=0.397x elapsed=0:00:03.60    \nframe=   68 fps= 16 q=46.0 size=     512KiB time=00:00:02.16 bitrate=1936.0kbits/s speed=0.523x elapsed=0:00:04.14    \nframe=   93 fps= 20 q=45.0 size=     768KiB time=00:00:03.03 bitrate=2074.2kbits/s speed=0.65x elapsed=0:00:04.66    \nframe=  125 fps= 24 q=43.0 size=    1024KiB time=00:00:04.10 bitrate=2046.1kbits/s speed=0.789x elapsed=0:00:05.19    \n[mp4 @ 000001dc4a771440] Starting second pass: moving the moov atom to the beginning of the file\n[out#0/mp4 @ 000001dc4a769a00] video:1424KiB audio:0KiB subtitle:0KiB other streams:0KiB global headers:0KiB muxing overhead: 0.183212%\nframe=  150 fps= 27 q=-1.0 Lsize=    1426KiB time=00:00:04.93 bitrate=2368.4kbits/s speed=0.895x elapsed=0:00:05.50    \n[libx264 @ 000001dc4b5175c0] frame I:2     Avg QP:42.22  size: 40164\n[libx264 @ 000001dc4b5175c0] frame P:38    Avg QP:45.38  size: 16753\n[libx264 @ 000001dc4b5175c0] frame B:110   Avg QP:47.06  size:  6729\n[libx264 @ 000001dc4b5175c0] consecutive B-frames:  2.0%  0.0%  2.0% 96.0%\n[libx264 @ 000001dc4b5175c0] mb I  I16..4: 29.4% 65.8%  4.8%\n[libx264 @ 000001dc4b5175c0] mb P  I16..4:  4.5%  6.5%  0.1%  P16..4: 35.3%  4.6%  4.4%  0.0%  0.0%    skip:44.6%\n[libx264 @ 000001dc4b5175c0] mb B  I16..4:  0.0%  0.2%  0.0%  B16..8: 32.4%  2.0%  0.2%  direct: 1.8%  skip:63.4%  L0:43.6% L1:55.2% BI: 1.3%\n[libx264 @ 000001dc4b5175c0] 8x8 transform intra:61.8% inter:80.4%\n[libx264 @ 000001dc4b5175c0] direct mvs  spatial:90.9% temporal:9.1%\n[libx264 @ 000001dc4b5175c0] coded y,uvDC,uvAC intra: 33.3% 11.1% 0.0% inter: 7.6% 0.5% 0.0%\n[libx264 @ 000001dc4b5175c0] i16 v,h,dc,p: 33% 31% 14% 22%\n[libx264 @ 000001dc4b5175c0] i8 v,h,dc,ddl,ddr,vr,hd,vl,hu:  5%  4% 19% 12% 15% 10% 15%  8% 13%\n[libx264 @ 000001dc4b5175c0] i4 v,h,dc,ddl,ddr,vr,hd,vl,hu:  3%  5%  9% 12% 14%  9% 16%  9% 23%\n[libx264 @ 000001dc4b5175c0] i8c dc,h,v,p: 95%  4%  1%  0%\n[libx264 @ 000001dc4b5175c0] Weighted P-Frames: Y:7.9% UV:0.0%\n[libx264 @ 000001dc4b5175c0] ref P L0: 50.9%  6.2% 21.6%  9.9% 10.6%  0.9%\n[libx264 @ 000001dc4b5175c0] ref B L0: 80.7% 12.5%  4.8%  2.1%\n[libx264 @ 000001dc4b5175c0] ref B L1: 94.4%  5.6%\n[libx264 @ 000001dc4b5175c0] kb/s:2331.37\n",
  "seconds": 5.821770906448364,
  "probe_out": {}
}